<svg width="1920" height="463" viewBox="0 0 1920 463" fill="none" xmlns="http://www.w3.org/2000/svg">
<rect width="1920" height="463" fill="#063255"/>
<path d="M1310.98 369.192C1310.98 369.757 1310.84 370.291 1310.58 370.792C1310.31 371.293 1309.88 371.704 1309.3 372.024C1308.71 372.333 1307.96 372.488 1307.04 372.488H1305.02V377H1303.2V365.88H1307.04C1307.89 365.88 1308.61 366.029 1309.2 366.328C1309.8 366.616 1310.24 367.011 1310.53 367.512C1310.83 368.013 1310.98 368.573 1310.98 369.192ZM1307.04 371C1307.73 371 1308.25 370.845 1308.59 370.536C1308.93 370.216 1309.1 369.768 1309.1 369.192C1309.1 367.976 1308.42 367.368 1307.04 367.368H1305.02V371H1307.04ZM1314.54 369.464C1314.81 369.016 1315.16 368.669 1315.6 368.424C1316.04 368.168 1316.57 368.04 1317.18 368.04V369.928H1316.72C1316 369.928 1315.46 370.109 1315.08 370.472C1314.72 370.835 1314.54 371.464 1314.54 372.36V377H1312.72V368.184H1314.54V369.464ZM1319.78 367.016C1319.45 367.016 1319.18 366.904 1318.95 366.68C1318.73 366.456 1318.62 366.179 1318.62 365.848C1318.62 365.517 1318.73 365.24 1318.95 365.016C1319.18 364.792 1319.45 364.68 1319.78 364.68C1320.1 364.68 1320.38 364.792 1320.6 365.016C1320.82 365.24 1320.94 365.517 1320.94 365.848C1320.94 366.179 1320.82 366.456 1320.6 366.68C1320.38 366.904 1320.1 367.016 1319.78 367.016ZM1320.68 368.184V377H1318.86V368.184H1320.68ZM1326.48 375.368L1328.98 368.184H1330.91L1327.56 377H1325.38L1322.04 368.184H1323.99L1326.48 375.368ZM1331.69 372.552C1331.69 371.667 1331.87 370.883 1332.23 370.2C1332.6 369.517 1333.1 368.989 1333.73 368.616C1334.37 368.232 1335.08 368.04 1335.85 368.04C1336.54 368.04 1337.14 368.179 1337.65 368.456C1338.18 368.723 1338.59 369.059 1338.9 369.464V368.184H1340.74V377H1338.9V375.688C1338.59 376.104 1338.17 376.451 1337.64 376.728C1337.1 377.005 1336.5 377.144 1335.81 377.144C1335.06 377.144 1334.36 376.952 1333.73 376.568C1333.1 376.173 1332.6 375.629 1332.23 374.936C1331.87 374.232 1331.69 373.437 1331.69 372.552ZM1338.9 372.584C1338.9 371.976 1338.77 371.448 1338.52 371C1338.27 370.552 1337.95 370.211 1337.54 369.976C1337.14 369.741 1336.7 369.624 1336.23 369.624C1335.76 369.624 1335.32 369.741 1334.92 369.976C1334.51 370.2 1334.18 370.536 1333.93 370.984C1333.68 371.421 1333.56 371.944 1333.56 372.552C1333.56 373.16 1333.68 373.693 1333.93 374.152C1334.18 374.611 1334.51 374.963 1334.92 375.208C1335.33 375.443 1335.77 375.56 1336.23 375.56C1336.7 375.56 1337.14 375.443 1337.54 375.208C1337.95 374.973 1338.27 374.632 1338.52 374.184C1338.77 373.725 1338.9 373.192 1338.9 372.584ZM1342.53 372.584C1342.53 371.677 1342.71 370.883 1343.07 370.2C1343.45 369.507 1343.96 368.973 1344.61 368.6C1345.26 368.227 1346.01 368.04 1346.85 368.04C1347.92 368.04 1348.8 368.296 1349.49 368.808C1350.19 369.309 1350.67 370.029 1350.91 370.968H1348.95C1348.79 370.531 1348.53 370.189 1348.18 369.944C1347.83 369.699 1347.38 369.576 1346.85 369.576C1346.1 369.576 1345.51 369.843 1345.06 370.376C1344.62 370.899 1344.4 371.635 1344.4 372.584C1344.4 373.533 1344.62 374.275 1345.06 374.808C1345.51 375.341 1346.1 375.608 1346.85 375.608C1347.91 375.608 1348.6 375.144 1348.95 374.216H1350.91C1350.66 375.112 1350.18 375.827 1349.47 376.36C1348.77 376.883 1347.89 377.144 1346.85 377.144C1346.01 377.144 1345.26 376.957 1344.61 376.584C1343.96 376.2 1343.45 375.667 1343.07 374.984C1342.71 374.291 1342.53 373.491 1342.53 372.584ZM1360.67 368.184L1355.26 381.144H1353.37L1355.16 376.856L1351.69 368.184H1353.72L1356.2 374.904L1358.78 368.184H1360.67ZM1373.98 369.192C1373.98 369.757 1373.84 370.291 1373.58 370.792C1373.31 371.293 1372.88 371.704 1372.3 372.024C1371.71 372.333 1370.96 372.488 1370.04 372.488H1368.02V377H1366.2V365.88H1370.04C1370.89 365.88 1371.61 366.029 1372.2 366.328C1372.8 366.616 1373.24 367.011 1373.53 367.512C1373.83 368.013 1373.98 368.573 1373.98 369.192ZM1370.04 371C1370.73 371 1371.25 370.845 1371.59 370.536C1371.93 370.216 1372.1 369.768 1372.1 369.192C1372.1 367.976 1371.42 367.368 1370.04 367.368H1368.02V371H1370.04ZM1379.54 377.144C1378.71 377.144 1377.96 376.957 1377.28 376.584C1376.61 376.2 1376.08 375.667 1375.7 374.984C1375.32 374.291 1375.12 373.491 1375.12 372.584C1375.12 371.688 1375.32 370.893 1375.72 370.2C1376.11 369.507 1376.65 368.973 1377.33 368.6C1378.01 368.227 1378.78 368.04 1379.62 368.04C1380.46 368.04 1381.22 368.227 1381.91 368.6C1382.59 368.973 1383.13 369.507 1383.52 370.2C1383.92 370.893 1384.12 371.688 1384.12 372.584C1384.12 373.48 1383.91 374.275 1383.51 374.968C1383.1 375.661 1382.55 376.2 1381.84 376.584C1381.15 376.957 1380.38 377.144 1379.54 377.144ZM1379.54 375.56C1380.01 375.56 1380.45 375.448 1380.85 375.224C1381.27 375 1381.6 374.664 1381.86 374.216C1382.12 373.768 1382.24 373.224 1382.24 372.584C1382.24 371.944 1382.12 371.405 1381.88 370.968C1381.63 370.52 1381.3 370.184 1380.9 369.96C1380.49 369.736 1380.06 369.624 1379.59 369.624C1379.12 369.624 1378.68 369.736 1378.28 369.96C1377.88 370.184 1377.57 370.52 1377.33 370.968C1377.1 371.405 1376.98 371.944 1376.98 372.584C1376.98 373.533 1377.22 374.269 1377.7 374.792C1378.19 375.304 1378.8 375.56 1379.54 375.56ZM1387.74 365.16V377H1385.92V365.16H1387.74ZM1391.07 367.016C1390.73 367.016 1390.46 366.904 1390.23 366.68C1390.01 366.456 1389.9 366.179 1389.9 365.848C1389.9 365.517 1390.01 365.24 1390.23 365.016C1390.46 364.792 1390.73 364.68 1391.07 364.68C1391.39 364.68 1391.66 364.792 1391.88 365.016C1392.11 365.24 1392.22 365.517 1392.22 365.848C1392.22 366.179 1392.11 366.456 1391.88 366.68C1391.66 366.904 1391.39 367.016 1391.07 367.016ZM1391.96 368.184V377H1390.14V368.184H1391.96ZM1393.75 372.584C1393.75 371.677 1393.93 370.883 1394.29 370.2C1394.67 369.507 1395.18 368.973 1395.83 368.6C1396.48 368.227 1397.23 368.04 1398.07 368.04C1399.13 368.04 1400.01 368.296 1400.71 368.808C1401.41 369.309 1401.89 370.029 1402.13 370.968H1400.16C1400 370.531 1399.75 370.189 1399.4 369.944C1399.04 369.699 1398.6 369.576 1398.07 369.576C1397.32 369.576 1396.72 369.843 1396.28 370.376C1395.84 370.899 1395.62 371.635 1395.62 372.584C1395.62 373.533 1395.84 374.275 1396.28 374.808C1396.72 375.341 1397.32 375.608 1398.07 375.608C1399.12 375.608 1399.82 375.144 1400.16 374.216H1402.13C1401.88 375.112 1401.4 375.827 1400.69 376.36C1399.99 376.883 1399.11 377.144 1398.07 377.144C1397.23 377.144 1396.48 376.957 1395.83 376.584C1395.18 376.2 1394.67 375.667 1394.29 374.984C1393.93 374.291 1393.75 373.491 1393.75 372.584ZM1411.89 368.184L1406.48 381.144H1404.59L1406.38 376.856L1402.91 368.184H1404.94L1407.42 374.904L1410 368.184H1411.89Z" fill="white"/>
<path d="M1452.38 365.88V367.368H1449.42V377H1447.6V367.368H1444.62V365.88H1452.38ZM1462.31 372.376C1462.31 372.707 1462.29 373.005 1462.25 373.272H1455.51C1455.56 373.976 1455.83 374.541 1456.3 374.968C1456.76 375.395 1457.34 375.608 1458.02 375.608C1459 375.608 1459.7 375.197 1460.1 374.376H1462.07C1461.8 375.187 1461.32 375.853 1460.62 376.376C1459.92 376.888 1459.06 377.144 1458.02 377.144C1457.18 377.144 1456.42 376.957 1455.75 376.584C1455.09 376.2 1454.57 375.667 1454.18 374.984C1453.81 374.291 1453.62 373.491 1453.62 372.584C1453.62 371.677 1453.8 370.883 1454.17 370.2C1454.54 369.507 1455.06 368.973 1455.72 368.6C1456.39 368.227 1457.16 368.04 1458.02 368.04C1458.86 368.04 1459.6 368.221 1460.25 368.584C1460.9 368.947 1461.4 369.459 1461.77 370.12C1462.13 370.771 1462.31 371.523 1462.31 372.376ZM1460.41 371.8C1460.4 371.128 1460.16 370.589 1459.69 370.184C1459.22 369.779 1458.64 369.576 1457.94 369.576C1457.31 369.576 1456.78 369.779 1456.33 370.184C1455.88 370.579 1455.61 371.117 1455.53 371.8H1460.41ZM1465.93 369.464C1466.2 369.016 1466.55 368.669 1466.99 368.424C1467.43 368.168 1467.96 368.04 1468.57 368.04V369.928H1468.11C1467.39 369.928 1466.85 370.109 1466.47 370.472C1466.11 370.835 1465.93 371.464 1465.93 372.36V377H1464.11V368.184H1465.93V369.464ZM1480.92 368.04C1481.61 368.04 1482.23 368.184 1482.77 368.472C1483.33 368.76 1483.76 369.187 1484.07 369.752C1484.39 370.317 1484.55 371 1484.55 371.8V377H1482.74V372.072C1482.74 371.283 1482.55 370.68 1482.15 370.264C1481.76 369.837 1481.22 369.624 1480.53 369.624C1479.85 369.624 1479.31 369.837 1478.9 370.264C1478.51 370.68 1478.31 371.283 1478.31 372.072V377H1476.5V372.072C1476.5 371.283 1476.31 370.68 1475.91 370.264C1475.52 369.837 1474.98 369.624 1474.29 369.624C1473.61 369.624 1473.07 369.837 1472.66 370.264C1472.27 370.68 1472.07 371.283 1472.07 372.072V377H1470.25V368.184H1472.07V369.192C1472.37 368.829 1472.75 368.547 1473.21 368.344C1473.67 368.141 1474.16 368.04 1474.68 368.04C1475.38 368.04 1476.01 368.189 1476.57 368.488C1477.12 368.787 1477.55 369.219 1477.85 369.784C1478.11 369.251 1478.53 368.829 1479.09 368.52C1479.66 368.2 1480.27 368.04 1480.92 368.04ZM1490.07 377.144C1489.38 377.144 1488.75 377.021 1488.2 376.776C1487.66 376.52 1487.22 376.179 1486.9 375.752C1486.58 375.315 1486.41 374.829 1486.39 374.296H1488.28C1488.31 374.669 1488.49 374.984 1488.81 375.24C1489.14 375.485 1489.55 375.608 1490.04 375.608C1490.55 375.608 1490.95 375.512 1491.22 375.32C1491.51 375.117 1491.66 374.861 1491.66 374.552C1491.66 374.221 1491.5 373.976 1491.18 373.816C1490.87 373.656 1490.37 373.48 1489.69 373.288C1489.03 373.107 1488.49 372.931 1488.07 372.76C1487.66 372.589 1487.29 372.328 1486.98 371.976C1486.69 371.624 1486.54 371.16 1486.54 370.584C1486.54 370.115 1486.67 369.688 1486.95 369.304C1487.23 368.909 1487.62 368.6 1488.14 368.376C1488.66 368.152 1489.26 368.04 1489.93 368.04C1490.93 368.04 1491.74 368.296 1492.34 368.808C1492.96 369.309 1493.29 369.997 1493.34 370.872H1491.51C1491.48 370.477 1491.32 370.163 1491.03 369.928C1490.74 369.693 1490.35 369.576 1489.86 369.576C1489.38 369.576 1489.02 369.667 1488.76 369.848C1488.5 370.029 1488.38 370.269 1488.38 370.568C1488.38 370.803 1488.46 371 1488.63 371.16C1488.8 371.32 1489.01 371.448 1489.26 371.544C1489.5 371.629 1489.86 371.741 1490.34 371.88C1490.98 372.051 1491.51 372.227 1491.91 372.408C1492.33 372.579 1492.69 372.835 1492.98 373.176C1493.28 373.517 1493.44 373.971 1493.45 374.536C1493.45 375.037 1493.31 375.485 1493.03 375.88C1492.75 376.275 1492.36 376.584 1491.85 376.808C1491.35 377.032 1490.75 377.144 1490.07 377.144ZM1508.17 377L1506.79 375.624C1506.26 376.157 1505.68 376.557 1505.05 376.824C1504.42 377.08 1503.71 377.208 1502.94 377.208C1502.15 377.208 1501.45 377.069 1500.84 376.792C1500.23 376.515 1499.76 376.12 1499.43 375.608C1499.1 375.085 1498.94 374.483 1498.94 373.8C1498.94 373.032 1499.15 372.349 1499.59 371.752C1500.03 371.144 1500.68 370.664 1501.54 370.312C1501.23 369.939 1501.02 369.592 1500.89 369.272C1500.76 368.941 1500.7 368.579 1500.7 368.184C1500.7 367.693 1500.82 367.256 1501.06 366.872C1501.32 366.488 1501.68 366.184 1502.15 365.96C1502.62 365.736 1503.16 365.624 1503.78 365.624C1504.41 365.624 1504.95 365.747 1505.38 365.992C1505.83 366.227 1506.16 366.552 1506.38 366.968C1506.6 367.384 1506.69 367.848 1506.65 368.36H1504.82C1504.83 367.965 1504.74 367.661 1504.54 367.448C1504.33 367.224 1504.06 367.112 1503.7 367.112C1503.35 367.112 1503.06 367.219 1502.84 367.432C1502.63 367.635 1502.52 367.885 1502.52 368.184C1502.52 368.472 1502.6 368.76 1502.76 369.048C1502.93 369.325 1503.22 369.688 1503.64 370.136L1506.58 373.064L1507.72 371.192H1509.69L1508.25 373.656L1507.85 374.312L1510.55 377H1508.17ZM1502.94 375.656C1503.94 375.656 1504.82 375.245 1505.59 374.424L1502.65 371.464C1501.39 371.965 1500.76 372.723 1500.76 373.736C1500.76 374.28 1500.96 374.739 1501.37 375.112C1501.77 375.475 1502.3 375.656 1502.94 375.656ZM1515.3 371.416C1515.3 370.328 1515.55 369.352 1516.05 368.488C1516.56 367.624 1517.25 366.952 1518.11 366.472C1518.99 365.981 1519.94 365.736 1520.98 365.736C1522.16 365.736 1523.21 366.029 1524.13 366.616C1525.06 367.192 1525.73 368.013 1526.14 369.08H1523.95C1523.66 368.493 1523.26 368.056 1522.75 367.768C1522.24 367.48 1521.65 367.336 1520.98 367.336C1520.24 367.336 1519.58 367.501 1519.01 367.832C1518.43 368.163 1517.98 368.637 1517.65 369.256C1517.33 369.875 1517.17 370.595 1517.17 371.416C1517.17 372.237 1517.33 372.957 1517.65 373.576C1517.98 374.195 1518.43 374.675 1519.01 375.016C1519.58 375.347 1520.24 375.512 1520.98 375.512C1521.65 375.512 1522.24 375.368 1522.75 375.08C1523.26 374.792 1523.66 374.355 1523.95 373.768H1526.14C1525.73 374.835 1525.06 375.656 1524.13 376.232C1523.21 376.808 1522.16 377.096 1520.98 377.096C1519.93 377.096 1518.98 376.856 1518.11 376.376C1517.25 375.885 1516.56 375.208 1516.05 374.344C1515.55 373.48 1515.3 372.504 1515.3 371.416ZM1532.1 377.144C1531.27 377.144 1530.52 376.957 1529.85 376.584C1529.17 376.2 1528.65 375.667 1528.26 374.984C1527.88 374.291 1527.69 373.491 1527.69 372.584C1527.69 371.688 1527.88 370.893 1528.28 370.2C1528.67 369.507 1529.21 368.973 1529.89 368.6C1530.58 368.227 1531.34 368.04 1532.18 368.04C1533.02 368.04 1533.79 368.227 1534.47 368.6C1535.15 368.973 1535.69 369.507 1536.09 370.2C1536.48 370.893 1536.68 371.688 1536.68 372.584C1536.68 373.48 1536.48 374.275 1536.07 374.968C1535.66 375.661 1535.11 376.2 1534.41 376.584C1533.71 376.957 1532.94 377.144 1532.1 377.144ZM1532.1 375.56C1532.57 375.56 1533.01 375.448 1533.41 375.224C1533.83 375 1534.17 374.664 1534.42 374.216C1534.68 373.768 1534.81 373.224 1534.81 372.584C1534.81 371.944 1534.68 371.405 1534.44 370.968C1534.19 370.52 1533.87 370.184 1533.46 369.96C1533.06 369.736 1532.62 369.624 1532.15 369.624C1531.68 369.624 1531.24 369.736 1530.84 369.96C1530.44 370.184 1530.13 370.52 1529.89 370.968C1529.66 371.405 1529.54 371.944 1529.54 372.584C1529.54 373.533 1529.78 374.269 1530.26 374.792C1530.75 375.304 1531.37 375.56 1532.1 375.56ZM1542.93 368.04C1543.62 368.04 1544.24 368.184 1544.79 368.472C1545.34 368.76 1545.77 369.187 1546.08 369.752C1546.39 370.317 1546.55 371 1546.55 371.8V377H1544.74V372.072C1544.74 371.283 1544.54 370.68 1544.15 370.264C1543.75 369.837 1543.21 369.624 1542.53 369.624C1541.85 369.624 1541.3 369.837 1540.9 370.264C1540.5 370.68 1540.31 371.283 1540.31 372.072V377H1538.48V368.184H1540.31V369.192C1540.6 368.829 1540.98 368.547 1541.44 368.344C1541.91 368.141 1542.41 368.04 1542.93 368.04ZM1548.26 372.552C1548.26 371.667 1548.45 370.883 1548.81 370.2C1549.18 369.517 1549.68 368.989 1550.31 368.616C1550.95 368.232 1551.66 368.04 1552.44 368.04C1553.02 368.04 1553.58 368.168 1554.14 368.424C1554.7 368.669 1555.15 369 1555.48 369.416V365.16H1557.32V377H1555.48V375.672C1555.18 376.099 1554.77 376.451 1554.23 376.728C1553.71 377.005 1553.11 377.144 1552.42 377.144C1551.66 377.144 1550.95 376.952 1550.31 376.568C1549.68 376.173 1549.18 375.629 1548.81 374.936C1548.45 374.232 1548.26 373.437 1548.26 372.552ZM1555.48 372.584C1555.48 371.976 1555.35 371.448 1555.1 371C1554.85 370.552 1554.53 370.211 1554.12 369.976C1553.71 369.741 1553.28 369.624 1552.81 369.624C1552.34 369.624 1551.9 369.741 1551.5 369.976C1551.09 370.2 1550.76 370.536 1550.5 370.984C1550.26 371.421 1550.14 371.944 1550.14 372.552C1550.14 373.16 1550.26 373.693 1550.5 374.152C1550.76 374.611 1551.09 374.963 1551.5 375.208C1551.91 375.443 1552.35 375.56 1552.81 375.56C1553.28 375.56 1553.71 375.443 1554.12 375.208C1554.53 374.973 1554.85 374.632 1555.1 374.184C1555.35 373.725 1555.48 373.192 1555.48 372.584ZM1560.64 367.016C1560.31 367.016 1560.04 366.904 1559.81 366.68C1559.59 366.456 1559.48 366.179 1559.48 365.848C1559.48 365.517 1559.59 365.24 1559.81 365.016C1560.04 364.792 1560.31 364.68 1560.64 364.68C1560.96 364.68 1561.24 364.792 1561.46 365.016C1561.68 365.24 1561.8 365.517 1561.8 365.848C1561.8 366.179 1561.68 366.456 1561.46 366.68C1561.24 366.904 1560.96 367.016 1560.64 367.016ZM1561.54 368.184V377H1559.72V368.184H1561.54ZM1566.06 369.672V374.552C1566.06 374.883 1566.14 375.123 1566.29 375.272C1566.45 375.411 1566.71 375.48 1567.09 375.48H1568.21V377H1566.77C1565.95 377 1565.32 376.808 1564.88 376.424C1564.44 376.04 1564.22 375.416 1564.22 374.552V369.672H1563.18V368.184H1564.22V365.992H1566.06V368.184H1568.21V369.672H1566.06ZM1570.82 367.016C1570.48 367.016 1570.21 366.904 1569.98 366.68C1569.76 366.456 1569.65 366.179 1569.65 365.848C1569.65 365.517 1569.76 365.24 1569.98 365.016C1570.21 364.792 1570.48 364.68 1570.82 364.68C1571.14 364.68 1571.41 364.792 1571.63 365.016C1571.86 365.24 1571.97 365.517 1571.97 365.848C1571.97 366.179 1571.86 366.456 1571.63 366.68C1571.41 366.904 1571.14 367.016 1570.82 367.016ZM1571.71 368.184V377H1569.89V368.184H1571.71ZM1577.93 377.144C1577.1 377.144 1576.35 376.957 1575.67 376.584C1575 376.2 1574.47 375.667 1574.09 374.984C1573.71 374.291 1573.51 373.491 1573.51 372.584C1573.51 371.688 1573.71 370.893 1574.11 370.2C1574.5 369.507 1575.04 368.973 1575.72 368.6C1576.4 368.227 1577.17 368.04 1578.01 368.04C1578.85 368.04 1579.62 368.227 1580.3 368.6C1580.98 368.973 1581.52 369.507 1581.91 370.2C1582.31 370.893 1582.51 371.688 1582.51 372.584C1582.51 373.48 1582.3 374.275 1581.9 374.968C1581.49 375.661 1580.94 376.2 1580.23 376.584C1579.54 376.957 1578.77 377.144 1577.93 377.144ZM1577.93 375.56C1578.4 375.56 1578.84 375.448 1579.24 375.224C1579.66 375 1579.99 374.664 1580.25 374.216C1580.51 373.768 1580.63 373.224 1580.63 372.584C1580.63 371.944 1580.51 371.405 1580.27 370.968C1580.02 370.52 1579.7 370.184 1579.29 369.96C1578.88 369.736 1578.45 369.624 1577.98 369.624C1577.51 369.624 1577.07 369.736 1576.67 369.96C1576.27 370.184 1575.96 370.52 1575.72 370.968C1575.49 371.405 1575.37 371.944 1575.37 372.584C1575.37 373.533 1575.61 374.269 1576.09 374.792C1576.58 375.304 1577.19 375.56 1577.93 375.56ZM1588.76 368.04C1589.45 368.04 1590.07 368.184 1590.61 368.472C1591.17 368.76 1591.6 369.187 1591.91 369.752C1592.22 370.317 1592.37 371 1592.37 371.8V377H1590.57V372.072C1590.57 371.283 1590.37 370.68 1589.97 370.264C1589.58 369.837 1589.04 369.624 1588.36 369.624C1587.67 369.624 1587.13 369.837 1586.73 370.264C1586.33 370.68 1586.13 371.283 1586.13 372.072V377H1584.31V368.184H1586.13V369.192C1586.43 368.829 1586.81 368.547 1587.27 368.344C1587.74 368.141 1588.23 368.04 1588.76 368.04ZM1597.9 377.144C1597.21 377.144 1596.58 377.021 1596.03 376.776C1595.48 376.52 1595.05 376.179 1594.73 375.752C1594.41 375.315 1594.24 374.829 1594.22 374.296H1596.11C1596.14 374.669 1596.32 374.984 1596.64 375.24C1596.97 375.485 1597.38 375.608 1597.87 375.608C1598.38 375.608 1598.77 375.512 1599.05 375.32C1599.34 375.117 1599.48 374.861 1599.48 374.552C1599.48 374.221 1599.32 373.976 1599 373.816C1598.69 373.656 1598.2 373.48 1597.52 373.288C1596.85 373.107 1596.32 372.931 1595.9 372.76C1595.48 372.589 1595.12 372.328 1594.81 371.976C1594.51 371.624 1594.36 371.16 1594.36 370.584C1594.36 370.115 1594.5 369.688 1594.78 369.304C1595.06 368.909 1595.45 368.6 1595.96 368.376C1596.49 368.152 1597.08 368.04 1597.76 368.04C1598.76 368.04 1599.56 368.296 1600.17 368.808C1600.79 369.309 1601.12 369.997 1601.16 370.872H1599.34C1599.31 370.477 1599.15 370.163 1598.86 369.928C1598.57 369.693 1598.18 369.576 1597.69 369.576C1597.21 369.576 1596.84 369.667 1596.59 369.848C1596.33 370.029 1596.2 370.269 1596.2 370.568C1596.2 370.803 1596.29 371 1596.46 371.16C1596.63 371.32 1596.84 371.448 1597.08 371.544C1597.33 371.629 1597.69 371.741 1598.17 371.88C1598.81 372.051 1599.33 372.227 1599.74 372.408C1600.16 372.579 1600.51 372.835 1600.81 373.176C1601.11 373.517 1601.27 373.971 1601.28 374.536C1601.28 375.037 1601.14 375.485 1600.86 375.88C1600.58 376.275 1600.19 376.584 1599.68 376.808C1599.17 377.032 1598.58 377.144 1597.9 377.144Z" fill="white"/>
<path d="M326.32 365.736C327.408 365.736 328.373 365.981 329.216 366.472C330.059 366.952 330.715 367.624 331.184 368.488C331.653 369.352 331.888 370.333 331.888 371.432C331.888 372.531 331.653 373.517 331.184 374.392C330.715 375.256 330.059 375.933 329.216 376.424C328.373 376.904 327.408 377.144 326.32 377.144C325.232 377.144 324.261 376.904 323.408 376.424C322.565 375.933 321.909 375.256 321.44 374.392C320.971 373.517 320.736 372.531 320.736 371.432C320.736 370.333 320.971 369.352 321.44 368.488C321.909 367.624 322.565 366.952 323.408 366.472C324.261 365.981 325.232 365.736 326.32 365.736ZM326.32 366.472C325.349 366.472 324.501 366.675 323.776 367.08C323.061 367.485 322.507 368.067 322.112 368.824C321.728 369.571 321.536 370.44 321.536 371.432C321.536 372.424 321.728 373.293 322.112 374.04C322.507 374.787 323.061 375.368 323.776 375.784C324.501 376.2 325.349 376.408 326.32 376.408C327.28 376.408 328.117 376.2 328.832 375.784C329.557 375.368 330.112 374.787 330.496 374.04C330.891 373.293 331.088 372.424 331.088 371.432C331.088 370.44 330.891 369.571 330.496 368.824C330.112 368.067 329.563 367.485 328.848 367.08C328.133 366.675 327.291 366.472 326.32 366.472ZM326.272 367.752C325.621 367.752 325.029 367.907 324.496 368.216C323.963 368.515 323.541 368.941 323.232 369.496C322.933 370.051 322.784 370.691 322.784 371.416C322.784 372.141 322.939 372.787 323.248 373.352C323.557 373.907 323.973 374.339 324.496 374.648C325.029 374.947 325.621 375.096 326.272 375.096C327.083 375.096 327.781 374.883 328.368 374.456C328.955 374.019 329.349 373.448 329.552 372.744H327.888C327.749 373.085 327.552 373.347 327.296 373.528C327.04 373.709 326.699 373.8 326.272 373.8C325.707 373.8 325.253 373.597 324.912 373.192C324.571 372.776 324.4 372.184 324.4 371.416C324.4 370.648 324.571 370.061 324.912 369.656C325.253 369.251 325.707 369.048 326.272 369.048C326.677 369.048 327.019 369.139 327.296 369.32C327.584 369.501 327.781 369.763 327.888 370.104H329.552C329.349 369.357 328.96 368.781 328.384 368.376C327.808 367.96 327.104 367.752 326.272 367.752ZM344.685 374.728H340.029L339.229 377H337.325L341.309 365.864H343.421L347.405 377H345.485L344.685 374.728ZM344.173 373.24L342.365 368.072L340.541 373.24H344.173ZM350.962 365.16V377H349.138V365.16H350.962ZM355.18 365.16V377H353.356V365.16H355.18ZM363.555 369.464C363.822 369.016 364.174 368.669 364.611 368.424C365.059 368.168 365.587 368.04 366.195 368.04V369.928H365.731C365.017 369.928 364.473 370.109 364.099 370.472C363.737 370.835 363.555 371.464 363.555 372.36V377H361.731V368.184H363.555V369.464ZM368.8 367.016C368.469 367.016 368.192 366.904 367.968 366.68C367.744 366.456 367.632 366.179 367.632 365.848C367.632 365.517 367.744 365.24 367.968 365.016C368.192 364.792 368.469 364.68 368.8 364.68C369.12 364.68 369.392 364.792 369.616 365.016C369.84 365.24 369.952 365.517 369.952 365.848C369.952 366.179 369.84 366.456 369.616 366.68C369.392 366.904 369.12 367.016 368.8 367.016ZM369.696 368.184V377H367.872V368.184H369.696ZM375.643 368.04C376.325 368.04 376.928 368.179 377.451 368.456C377.984 368.723 378.4 369.059 378.699 369.464V368.184H380.539V377.144C380.539 377.955 380.368 378.675 380.027 379.304C379.685 379.944 379.189 380.445 378.539 380.808C377.899 381.171 377.131 381.352 376.235 381.352C375.04 381.352 374.048 381.069 373.259 380.504C372.469 379.949 372.021 379.192 371.915 378.232H373.723C373.861 378.691 374.155 379.059 374.603 379.336C375.061 379.624 375.605 379.768 376.235 379.768C376.971 379.768 377.563 379.544 378.011 379.096C378.469 378.648 378.699 377.997 378.699 377.144V375.672C378.389 376.088 377.968 376.44 377.435 376.728C376.912 377.005 376.315 377.144 375.643 377.144C374.875 377.144 374.171 376.952 373.531 376.568C372.901 376.173 372.4 375.629 372.027 374.936C371.664 374.232 371.483 373.437 371.483 372.552C371.483 371.667 371.664 370.883 372.027 370.2C372.4 369.517 372.901 368.989 373.531 368.616C374.171 368.232 374.875 368.04 375.643 368.04ZM378.699 372.584C378.699 371.976 378.571 371.448 378.315 371C378.069 370.552 377.744 370.211 377.339 369.976C376.933 369.741 376.496 369.624 376.027 369.624C375.557 369.624 375.12 369.741 374.715 369.976C374.309 370.2 373.979 370.536 373.723 370.984C373.477 371.421 373.355 371.944 373.355 372.552C373.355 373.16 373.477 373.693 373.723 374.152C373.979 374.611 374.309 374.963 374.715 375.208C375.131 375.443 375.568 375.56 376.027 375.56C376.496 375.56 376.933 375.443 377.339 375.208C377.744 374.973 378.069 374.632 378.315 374.184C378.571 373.725 378.699 373.192 378.699 372.584ZM387.494 368.04C388.166 368.04 388.764 368.184 389.286 368.472C389.82 368.76 390.236 369.187 390.534 369.752C390.844 370.317 390.998 371 390.998 371.8V377H389.19V372.072C389.19 371.283 388.993 370.68 388.598 370.264C388.204 369.837 387.665 369.624 386.982 369.624C386.3 369.624 385.756 369.837 385.35 370.264C384.956 370.68 384.758 371.283 384.758 372.072V377H382.934V365.16H384.758V369.208C385.068 368.835 385.457 368.547 385.926 368.344C386.406 368.141 386.929 368.04 387.494 368.04ZM395.453 369.672V374.552C395.453 374.883 395.528 375.123 395.677 375.272C395.837 375.411 396.104 375.48 396.477 375.48H397.597V377H396.157C395.336 377 394.706 376.808 394.269 376.424C393.832 376.04 393.613 375.416 393.613 374.552V369.672H392.573V368.184H393.613V365.992H395.453V368.184H397.597V369.672H395.453ZM402.478 377.144C401.785 377.144 401.161 377.021 400.606 376.776C400.062 376.52 399.63 376.179 399.31 375.752C398.99 375.315 398.819 374.829 398.798 374.296H400.686C400.718 374.669 400.894 374.984 401.214 375.24C401.545 375.485 401.955 375.608 402.446 375.608C402.958 375.608 403.353 375.512 403.63 375.32C403.918 375.117 404.062 374.861 404.062 374.552C404.062 374.221 403.902 373.976 403.582 373.816C403.273 373.656 402.777 373.48 402.094 373.288C401.433 373.107 400.894 372.931 400.478 372.76C400.062 372.589 399.699 372.328 399.39 371.976C399.091 371.624 398.942 371.16 398.942 370.584C398.942 370.115 399.081 369.688 399.358 369.304C399.635 368.909 400.03 368.6 400.542 368.376C401.065 368.152 401.662 368.04 402.334 368.04C403.337 368.04 404.142 368.296 404.75 368.808C405.369 369.309 405.699 369.997 405.742 370.872H403.918C403.886 370.477 403.726 370.163 403.438 369.928C403.15 369.693 402.761 369.576 402.27 369.576C401.79 369.576 401.422 369.667 401.166 369.848C400.91 370.029 400.782 370.269 400.782 370.568C400.782 370.803 400.867 371 401.038 371.16C401.209 371.32 401.417 371.448 401.662 371.544C401.907 371.629 402.27 371.741 402.75 371.88C403.39 372.051 403.913 372.227 404.318 372.408C404.734 372.579 405.091 372.835 405.39 373.176C405.689 373.517 405.843 373.971 405.854 374.536C405.854 375.037 405.715 375.485 405.438 375.88C405.161 376.275 404.766 376.584 404.254 376.808C403.753 377.032 403.161 377.144 402.478 377.144ZM413.805 369.464C414.072 369.016 414.424 368.669 414.861 368.424C415.309 368.168 415.837 368.04 416.445 368.04V369.928H415.981C415.267 369.928 414.723 370.109 414.349 370.472C413.987 370.835 413.805 371.464 413.805 372.36V377H411.981V368.184H413.805V369.464ZM426.202 372.376C426.202 372.707 426.181 373.005 426.138 373.272H419.402C419.455 373.976 419.717 374.541 420.186 374.968C420.655 375.395 421.231 375.608 421.914 375.608C422.895 375.608 423.589 375.197 423.994 374.376H425.962C425.695 375.187 425.21 375.853 424.506 376.376C423.813 376.888 422.949 377.144 421.914 377.144C421.071 377.144 420.314 376.957 419.642 376.584C418.981 376.2 418.458 375.667 418.074 374.984C417.701 374.291 417.514 373.491 417.514 372.584C417.514 371.677 417.695 370.883 418.058 370.2C418.431 369.507 418.949 368.973 419.61 368.6C420.282 368.227 421.05 368.04 421.914 368.04C422.746 368.04 423.487 368.221 424.138 368.584C424.789 368.947 425.295 369.459 425.658 370.12C426.021 370.771 426.202 371.523 426.202 372.376ZM424.298 371.8C424.287 371.128 424.047 370.589 423.578 370.184C423.109 369.779 422.527 369.576 421.834 369.576C421.205 369.576 420.666 369.779 420.218 370.184C419.77 370.579 419.503 371.117 419.418 371.8H424.298ZM431.197 377.144C430.504 377.144 429.88 377.021 429.325 376.776C428.781 376.52 428.349 376.179 428.029 375.752C427.709 375.315 427.538 374.829 427.517 374.296H429.405C429.437 374.669 429.613 374.984 429.933 375.24C430.264 375.485 430.674 375.608 431.165 375.608C431.677 375.608 432.072 375.512 432.349 375.32C432.637 375.117 432.781 374.861 432.781 374.552C432.781 374.221 432.621 373.976 432.301 373.816C431.992 373.656 431.496 373.48 430.813 373.288C430.152 373.107 429.613 372.931 429.197 372.76C428.781 372.589 428.418 372.328 428.109 371.976C427.81 371.624 427.661 371.16 427.661 370.584C427.661 370.115 427.8 369.688 428.077 369.304C428.354 368.909 428.749 368.6 429.261 368.376C429.784 368.152 430.381 368.04 431.053 368.04C432.056 368.04 432.861 368.296 433.469 368.808C434.088 369.309 434.418 369.997 434.461 370.872H432.637C432.605 370.477 432.445 370.163 432.157 369.928C431.869 369.693 431.48 369.576 430.989 369.576C430.509 369.576 430.141 369.667 429.885 369.848C429.629 370.029 429.501 370.269 429.501 370.568C429.501 370.803 429.586 371 429.757 371.16C429.928 371.32 430.136 371.448 430.381 371.544C430.626 371.629 430.989 371.741 431.469 371.88C432.109 372.051 432.632 372.227 433.037 372.408C433.453 372.579 433.81 372.835 434.109 373.176C434.408 373.517 434.562 373.971 434.573 374.536C434.573 375.037 434.434 375.485 434.157 375.88C433.88 376.275 433.485 376.584 432.973 376.808C432.472 377.032 431.88 377.144 431.197 377.144ZM444.624 372.376C444.624 372.707 444.602 373.005 444.56 373.272H437.824C437.877 373.976 438.138 374.541 438.608 374.968C439.077 375.395 439.653 375.608 440.336 375.608C441.317 375.608 442.01 375.197 442.416 374.376H444.384C444.117 375.187 443.632 375.853 442.928 376.376C442.234 376.888 441.37 377.144 440.336 377.144C439.493 377.144 438.736 376.957 438.064 376.584C437.402 376.2 436.88 375.667 436.496 374.984C436.122 374.291 435.936 373.491 435.936 372.584C435.936 371.677 436.117 370.883 436.48 370.2C436.853 369.507 437.37 368.973 438.032 368.6C438.704 368.227 439.472 368.04 440.336 368.04C441.168 368.04 441.909 368.221 442.56 368.584C443.21 368.947 443.717 369.459 444.08 370.12C444.442 370.771 444.624 371.523 444.624 372.376ZM442.72 371.8C442.709 371.128 442.469 370.589 442 370.184C441.53 369.779 440.949 369.576 440.256 369.576C439.626 369.576 439.088 369.779 438.64 370.184C438.192 370.579 437.925 371.117 437.84 371.8H442.72ZM448.243 369.464C448.509 369.016 448.861 368.669 449.299 368.424C449.747 368.168 450.275 368.04 450.883 368.04V369.928H450.419C449.704 369.928 449.16 370.109 448.787 370.472C448.424 370.835 448.243 371.464 448.243 372.36V377H446.419V368.184H448.243V369.464ZM455.967 375.368L458.463 368.184H460.399L457.039 377H454.863L451.519 368.184H453.471L455.967 375.368ZM469.858 372.376C469.858 372.707 469.837 373.005 469.794 373.272H463.058C463.111 373.976 463.373 374.541 463.842 374.968C464.311 375.395 464.887 375.608 465.57 375.608C466.551 375.608 467.245 375.197 467.65 374.376H469.618C469.351 375.187 468.866 375.853 468.162 376.376C467.469 376.888 466.605 377.144 465.57 377.144C464.727 377.144 463.97 376.957 463.298 376.584C462.637 376.2 462.114 375.667 461.73 374.984C461.357 374.291 461.17 373.491 461.17 372.584C461.17 371.677 461.351 370.883 461.714 370.2C462.087 369.507 462.605 368.973 463.266 368.6C463.938 368.227 464.706 368.04 465.57 368.04C466.402 368.04 467.143 368.221 467.794 368.584C468.445 368.947 468.951 369.459 469.314 370.12C469.677 370.771 469.858 371.523 469.858 372.376ZM467.954 371.8C467.943 371.128 467.703 370.589 467.234 370.184C466.765 369.779 466.183 369.576 465.49 369.576C464.861 369.576 464.322 369.779 463.874 370.184C463.426 370.579 463.159 371.117 463.074 371.8H467.954ZM471.045 372.552C471.045 371.667 471.226 370.883 471.589 370.2C471.962 369.517 472.464 368.989 473.093 368.616C473.733 368.232 474.442 368.04 475.221 368.04C475.797 368.04 476.362 368.168 476.917 368.424C477.482 368.669 477.93 369 478.261 369.416V365.16H480.101V377H478.261V375.672C477.962 376.099 477.546 376.451 477.013 376.728C476.49 377.005 475.888 377.144 475.205 377.144C474.437 377.144 473.733 376.952 473.093 376.568C472.464 376.173 471.962 375.629 471.589 374.936C471.226 374.232 471.045 373.437 471.045 372.552ZM478.261 372.584C478.261 371.976 478.133 371.448 477.877 371C477.632 370.552 477.306 370.211 476.901 369.976C476.496 369.741 476.058 369.624 475.589 369.624C475.12 369.624 474.682 369.741 474.277 369.976C473.872 370.2 473.541 370.536 473.285 370.984C473.04 371.421 472.917 371.944 472.917 372.552C472.917 373.16 473.04 373.693 473.285 374.152C473.541 374.611 473.872 374.963 474.277 375.208C474.693 375.443 475.13 375.56 475.589 375.56C476.058 375.56 476.496 375.443 476.901 375.208C477.306 374.973 477.632 374.632 477.877 374.184C478.133 373.725 478.261 373.192 478.261 372.584ZM495.405 370.44V371.976H486.845V370.44H495.405ZM508.682 365.88V367.368H503.962V370.648H507.642V372.136H503.962V377H502.138V365.88H508.682ZM511.3 367.016C510.969 367.016 510.692 366.904 510.468 366.68C510.244 366.456 510.132 366.179 510.132 365.848C510.132 365.517 510.244 365.24 510.468 365.016C510.692 364.792 510.969 364.68 511.3 364.68C511.62 364.68 511.892 364.792 512.116 365.016C512.34 365.24 512.452 365.517 512.452 365.848C512.452 366.179 512.34 366.456 512.116 366.68C511.892 366.904 511.62 367.016 511.3 367.016ZM512.196 368.184V377H510.372V368.184H512.196ZM519.039 368.04C519.732 368.04 520.351 368.184 520.895 368.472C521.449 368.76 521.881 369.187 522.191 369.752C522.5 370.317 522.655 371 522.655 371.8V377H520.847V372.072C520.847 371.283 520.649 370.68 520.255 370.264C519.86 369.837 519.321 369.624 518.639 369.624C517.956 369.624 517.412 369.837 517.007 370.264C516.612 370.68 516.415 371.283 516.415 372.072V377H514.591V368.184H516.415V369.192C516.713 368.829 517.092 368.547 517.551 368.344C518.02 368.141 518.516 368.04 519.039 368.04ZM528.181 377.144C527.488 377.144 526.864 377.021 526.309 376.776C525.765 376.52 525.333 376.179 525.013 375.752C524.693 375.315 524.523 374.829 524.501 374.296H526.389C526.421 374.669 526.597 374.984 526.917 375.24C527.248 375.485 527.659 375.608 528.149 375.608C528.661 375.608 529.056 375.512 529.333 375.32C529.621 375.117 529.765 374.861 529.765 374.552C529.765 374.221 529.605 373.976 529.285 373.816C528.976 373.656 528.48 373.48 527.797 373.288C527.136 373.107 526.597 372.931 526.181 372.76C525.765 372.589 525.403 372.328 525.093 371.976C524.795 371.624 524.645 371.16 524.645 370.584C524.645 370.115 524.784 369.688 525.061 369.304C525.339 368.909 525.733 368.6 526.245 368.376C526.768 368.152 527.365 368.04 528.037 368.04C529.04 368.04 529.845 368.296 530.453 368.808C531.072 369.309 531.403 369.997 531.445 370.872H529.621C529.589 370.477 529.429 370.163 529.141 369.928C528.853 369.693 528.464 369.576 527.973 369.576C527.493 369.576 527.125 369.667 526.869 369.848C526.613 370.029 526.485 370.269 526.485 370.568C526.485 370.803 526.571 371 526.741 371.16C526.912 371.32 527.12 371.448 527.365 371.544C527.611 371.629 527.973 371.741 528.453 371.88C529.093 372.051 529.616 372.227 530.021 372.408C530.437 372.579 530.795 372.835 531.093 373.176C531.392 373.517 531.547 373.971 531.557 374.536C531.557 375.037 531.419 375.485 531.141 375.88C530.864 376.275 530.469 376.584 529.957 376.808C529.456 377.032 528.864 377.144 528.181 377.144ZM545.368 368.184L542.632 377H540.712L538.936 370.488L537.16 377H535.24L532.488 368.184H534.344L536.184 375.272L538.056 368.184H539.96L541.752 375.24L543.576 368.184H545.368ZM554.811 372.376C554.811 372.707 554.79 373.005 554.747 373.272H548.011C548.065 373.976 548.326 374.541 548.795 374.968C549.265 375.395 549.841 375.608 550.523 375.608C551.505 375.608 552.198 375.197 552.603 374.376H554.571C554.305 375.187 553.819 375.853 553.115 376.376C552.422 376.888 551.558 377.144 550.523 377.144C549.681 377.144 548.923 376.957 548.251 376.584C547.59 376.2 547.067 375.667 546.683 374.984C546.31 374.291 546.123 373.491 546.123 372.584C546.123 371.677 546.305 370.883 546.667 370.2C547.041 369.507 547.558 368.973 548.219 368.6C548.891 368.227 549.659 368.04 550.523 368.04C551.355 368.04 552.097 368.221 552.747 368.584C553.398 368.947 553.905 369.459 554.267 370.12C554.63 370.771 554.811 371.523 554.811 372.376ZM552.907 371.8C552.897 371.128 552.657 370.589 552.187 370.184C551.718 369.779 551.137 369.576 550.443 369.576C549.814 369.576 549.275 369.779 548.827 370.184C548.379 370.579 548.113 371.117 548.027 371.8H552.907ZM564.686 372.376C564.686 372.707 564.665 373.005 564.622 373.272H557.886C557.94 373.976 558.201 374.541 558.67 374.968C559.14 375.395 559.716 375.608 560.398 375.608C561.38 375.608 562.073 375.197 562.478 374.376H564.446C564.18 375.187 563.694 375.853 562.99 376.376C562.297 376.888 561.433 377.144 560.398 377.144C559.556 377.144 558.798 376.957 558.126 376.584C557.465 376.2 556.942 375.667 556.558 374.984C556.185 374.291 555.998 373.491 555.998 372.584C555.998 371.677 556.18 370.883 556.542 370.2C556.916 369.507 557.433 368.973 558.094 368.6C558.766 368.227 559.534 368.04 560.398 368.04C561.23 368.04 561.972 368.221 562.622 368.584C563.273 368.947 563.78 369.459 564.142 370.12C564.505 370.771 564.686 371.523 564.686 372.376ZM562.782 371.8C562.772 371.128 562.532 370.589 562.062 370.184C561.593 369.779 561.012 369.576 560.318 369.576C559.689 369.576 559.15 369.779 558.702 370.184C558.254 370.579 557.988 371.117 557.902 371.8H562.782ZM568.609 369.672V374.552C568.609 374.883 568.684 375.123 568.833 375.272C568.993 375.411 569.26 375.48 569.633 375.48H570.753V377H569.313C568.492 377 567.863 376.808 567.425 376.424C566.988 376.04 566.769 375.416 566.769 374.552V369.672H565.729V368.184H566.769V365.992H568.609V368.184H570.753V369.672H568.609Z" fill="white"/>
<path d="M1867 58C1867 46.9543 1875.95 38 1887 38H1920V325H1887C1875.95 325 1867 316.046 1867 305V58Z" fill="#F58A07"/>
<path d="M53 463L1.52588e-05 463L2.66991e-06 319L33 319C44.0457 319 53 327.954 53 339L53 463Z" fill="#F58A07"/>
</svg>
