<svg width="22" height="20" viewBox="0 0 22 20" fill="none" xmlns="http://www.w3.org/2000/svg">
<g clip-path="url(#clip0_1532_305)">
<path d="M15.5561 1.66663H6.66315C4.20743 1.66663 2.21667 3.53211 2.21667 5.83329V14.1666C2.21667 16.4678 4.20743 18.3333 6.66315 18.3333H15.5561C18.0118 18.3333 20.0026 16.4678 20.0026 14.1666V5.83329C20.0026 3.53211 18.0118 1.66663 15.5561 1.66663Z" stroke="white" stroke-width="2" stroke-linecap="round" stroke-linejoin="round"/>
<path d="M14.6668 9.47501C14.7766 10.1685 14.6502 10.8769 14.3056 11.4992C13.961 12.1215 13.4157 12.6262 12.7474 12.9414C12.0791 13.2566 11.3217 13.3663 10.583 13.2549C9.84429 13.1436 9.16188 12.8167 8.63282 12.321C8.10376 11.8252 7.75499 11.1857 7.63612 10.4935C7.51726 9.8013 7.63434 9.09158 7.97073 8.46532C8.30711 7.83905 8.84567 7.32812 9.50979 7.00521C10.1739 6.68229 10.9298 6.56383 11.6699 6.66667C12.4248 6.77158 13.1238 7.10123 13.6634 7.60693C14.2031 8.11263 14.5549 8.76757 14.6668 9.47501Z" stroke="white" stroke-width="2" stroke-linecap="round" stroke-linejoin="round"/>
<path d="M16.0007 5.41669H16.0104" stroke="white" stroke-width="2" stroke-linecap="round" stroke-linejoin="round"/>
</g>
<defs>
<clipPath id="clip0_1532_305">
<rect width="21.3431" height="20" fill="white" transform="translate(0.43811)"/>
</clipPath>
</defs>
</svg>
