<svg width="120" height="25" viewBox="0 0 120 25" fill="none" xmlns="http://www.w3.org/2000/svg">
<g clip-path="url(#clip0_1532_314)">
<path d="M119.787 18.562V21.5316H117.296C114.638 21.4481 113.218 20.0126 113.218 17.3164V10.5342H111.479V7.92909H113.218V5.01263H116.894V7.89871H119.704V10.4962H116.894V16.9519C116.894 17.8253 117.068 18.524 118.413 18.524L119.787 18.562Z" fill="white"/>
<path d="M96.8278 14.757V14.5595C96.788 13.686 96.9211 12.8132 97.2192 11.9912C97.5174 11.1692 97.9749 10.4141 98.5655 9.76919C99.156 9.1243 99.868 8.60231 100.661 8.23312C101.453 7.86393 102.311 7.65481 103.185 7.61774C103.359 7.61774 103.542 7.61774 103.716 7.61774C107.187 7.61774 110.233 9.63799 110.233 14.4532V15.4785H100.587C100.686 17.6962 101.886 18.9494 103.906 18.9494C105.646 18.9494 106.458 18.1899 106.694 17.081H110.165C109.739 19.9747 107.43 21.5848 103.777 21.5848C99.767 21.5544 96.8278 19.0177 96.8278 14.757ZM106.618 13.1544C106.489 11.1342 105.471 10.162 103.701 10.162C101.932 10.162 100.914 11.2557 100.663 13.1544H106.618Z" fill="white"/>
<path d="M81.8203 14.757V14.5595C81.7805 13.6872 81.913 12.8156 82.2102 11.9946C82.5074 11.1735 82.9636 10.4191 83.5525 9.77437C84.1415 9.12968 84.8517 8.60739 85.6427 8.23734C86.4336 7.86729 87.2897 7.65675 88.162 7.61774C88.3367 7.61774 88.519 7.61774 88.6937 7.61774C92.1646 7.61774 95.2177 9.63799 95.2177 14.4532V15.4785H85.5797C85.6785 17.6962 86.8785 18.9494 88.8987 18.9494C90.638 18.9494 91.4506 18.1899 91.6861 17.081H95.157C94.7241 19.9747 92.4152 21.5848 88.762 21.5848C84.7595 21.5544 81.8203 19.0177 81.8203 14.757ZM91.6101 13.1544C91.481 11.1342 90.4633 10.162 88.6937 10.162C86.9241 10.162 85.9367 11.2861 85.6557 13.1469L91.6101 13.1544Z" fill="white"/>
<path d="M60.7595 7.89874H64.6481L67.0253 16.9063L69.6304 7.89874H72.6684L75.0228 16.9063L77.5291 7.89874H81.0912L76.8684 21.281H73.2228L70.9443 12.881L68.5064 21.281H64.8152L60.7595 7.89874Z" fill="white"/>
<path d="M48.4026 17.0734H51.8735C52.033 18.281 52.633 18.9722 54.2279 18.9722C55.6558 18.9722 56.3165 18.4329 56.3165 17.5139C56.3165 16.5949 55.557 16.2076 53.6127 15.9342C50.0507 15.3949 48.676 14.3696 48.676 11.757C48.676 8.96962 51.2279 7.58734 53.9925 7.58734C56.9621 7.58734 59.2026 8.66582 59.5216 11.7418H56.0963C56.0744 11.504 56.0056 11.2729 55.894 11.0618C55.7823 10.8507 55.6299 10.6639 55.4455 10.5121C55.2612 10.3602 55.0487 10.2464 54.8201 10.1772C54.5916 10.108 54.3516 10.0848 54.114 10.1089H54.0001C52.8001 10.1089 52.1013 10.6709 52.1013 11.4911C52.1013 12.3114 52.7469 12.6684 54.7064 12.9494C58.033 13.4506 59.8937 14.2937 59.8937 17.157C59.8937 20.0203 57.7899 21.5544 54.2659 21.5544C50.7418 21.5544 48.5013 19.9671 48.4026 17.0734Z" fill="white"/>
<path d="M33.6532 7.89876H37.3291V10.0177C37.7435 9.23997 38.3724 8.59751 39.1411 8.16668C39.9099 7.73585 40.7862 7.53478 41.6659 7.58736C44.2709 7.58736 46.1621 9.17471 46.1621 12.7975V21.3114H42.5317V13.3291C42.5317 11.5139 41.8253 10.6481 40.1848 10.6481C39.8381 10.6179 39.4888 10.6565 39.157 10.7617C38.8253 10.8668 38.5175 11.0365 38.2515 11.2609C37.9854 11.4853 37.7663 11.7601 37.6067 12.0694C37.4472 12.3787 37.3502 12.7165 37.3216 13.0633C37.3026 13.2248 37.3026 13.3879 37.3216 13.5494V21.281H33.6532V7.89876Z" fill="white"/>
<path d="M26.5595 4.53419C26.5461 4.16769 26.6419 3.80547 26.8345 3.4934C27.0272 3.18132 27.3081 2.93343 27.6417 2.78111C27.9753 2.62879 28.3466 2.57888 28.7086 2.6377C29.0706 2.69653 29.407 2.86145 29.6753 3.11157C29.9435 3.3617 30.1315 3.68578 30.2154 4.0428C30.2993 4.39982 30.2754 4.77371 30.1467 5.11714C30.018 5.46057 29.7903 5.75809 29.4925 5.97204C29.1946 6.18598 28.8399 6.30674 28.4734 6.319H28.405C28.1775 6.3334 27.9494 6.30274 27.7338 6.22878C27.5182 6.15482 27.3193 6.03902 27.1485 5.88802C26.9778 5.73701 26.8385 5.55378 26.7387 5.34882C26.6389 5.14387 26.5806 4.92124 26.567 4.69369C26.5607 4.64077 26.5582 4.58747 26.5595 4.53419ZM26.5595 7.89875H30.2734V21.281H26.5746L26.5595 7.89875Z" fill="white"/>
<path d="M12.562 2.99243H24.3038V6.23547H16.7088V11.0734H22.724V14.195H16.7013V21.281H12.562V2.99243Z" fill="white"/>
<path d="M5.47595 8.97722C5.47595 10.1241 5.47595 11.5215 3.8962 12.0911C5.51393 12.6456 5.47595 13.8228 5.47595 15.0532V19.6101C5.47595 20.476 5.82532 21 6.4481 21.1291C6.58495 21.1753 6.72912 21.1959 6.87342 21.1899H8.39241V24.2278H5.88608C3.21266 24.2278 1.73924 22.7089 1.73924 19.8911V14.4987C1.72028 14.2219 1.59821 13.9622 1.39714 13.771C1.19607 13.5798 0.930606 13.4709 0.653165 13.4658H0V10.8H0.653165C0.936141 10.7963 1.20682 10.6837 1.40904 10.4858C1.61126 10.2878 1.72951 10.0195 1.73924 9.73671V4.26835C1.73924 1.4962 3.18228 0 5.88608 0H8.41519V2.99241H6.8962C6.75173 2.99282 6.60822 3.01589 6.47089 3.06076C5.8481 3.22025 5.49873 3.73671 5.49873 4.57975L5.47595 8.97722Z" fill="white"/>
</g>
<defs>
<clipPath id="clip0_1532_314">
<rect width="120" height="24.3038" fill="white"/>
</clipPath>
</defs>
</svg>
