<svg width="22" height="20" viewBox="0 0 22 20" fill="none" xmlns="http://www.w3.org/2000/svg">
<path d="M21.1109 2.49996C20.2593 3.06285 19.3164 3.49338 18.3185 3.77496C17.7829 3.19788 17.0711 2.78887 16.2794 2.60323C15.4876 2.41759 14.6541 2.46429 13.8916 2.737C13.1291 3.00972 12.4744 3.49529 12.016 4.12805C11.5576 4.76082 11.3177 5.51024 11.3286 6.27496V7.10829C9.76581 7.14626 8.21723 6.82147 6.8208 6.16283C5.42437 5.50419 4.22344 4.53215 3.32498 3.33329C3.32498 3.33329 -0.232202 10.8333 7.77145 14.1666C5.93997 15.3316 3.7582 15.9157 1.54639 15.8333C9.55004 20 19.3323 15.8333 19.3323 6.24996C19.3315 6.01783 19.3076 5.78629 19.2611 5.55829C20.1687 4.71953 20.8092 3.66055 21.1109 2.49996V2.49996Z" fill="white"/>
</svg>
