<svg width="22" height="20" viewBox="0 0 22 20" fill="none" xmlns="http://www.w3.org/2000/svg">
<path fill-rule="evenodd" clip-rule="evenodd" d="M19.6396 4.29948C19.9425 4.59212 20.1577 4.95449 20.2633 5.34998C20.5454 6.81556 20.6824 8.30244 20.6724 9.79165C20.678 11.2586 20.5411 12.723 20.2633 14.1666C20.1577 14.5621 19.9425 14.9245 19.6396 15.2171C19.3367 15.5098 18.9567 15.7223 18.5381 15.8333C17.0085 16.2166 10.8902 16.2166 10.8902 16.2166C10.8902 16.2166 4.77182 16.2166 3.24224 15.8333C2.83211 15.7282 2.45786 15.5257 2.15565 15.2454C1.85343 14.9651 1.63347 14.6165 1.51701 14.2333C1.23489 12.7677 1.09795 11.2809 1.10793 9.79165C1.10014 8.31357 1.23707 6.83794 1.51701 5.38331C1.62264 4.98782 1.83779 4.62546 2.14071 4.33282C2.44363 4.04018 2.8236 3.82763 3.24224 3.71665C4.77182 3.33331 10.8902 3.33331 10.8902 3.33331C10.8902 3.33331 17.0085 3.33331 18.5381 3.68331C18.9567 3.7943 19.3367 4.00685 19.6396 4.29948ZM14.0031 9.79167L8.88962 12.5167V7.06667L14.0031 9.79167Z" fill="white"/>
</svg>
